<?xml version="1.0" standalone="no"?>
<!DOCTYPE svg PUBLIC "-//W3C//DTD SVG 20010904//EN"
 "http://www.w3.org/TR/2001/REC-SVG-20010904/DTD/svg10.dtd">
<svg version="1.0" xmlns="http://www.w3.org/2000/svg"
 width="227.000000pt" height="227.000000pt" viewBox="0 0 227.000000 227.000000"
 preserveAspectRatio="xMidYMid meet">
<metadata>
Created by potrace 1.14, written by Peter Selinger 2001-2017
</metadata>
<g transform="translate(0.000000,227.000000) scale(0.100000,-0.100000)"
fill="#000000" stroke="none">
<path d="M380 1974 c0 -6 9 -34 19 -64 11 -30 22 -80 26 -110 8 -71 30 -150
49 -175 14 -18 15 -18 16 -2 0 26 30 68 56 77 l23 9 -31 56 c-16 31 -28 58
-26 61 3 2 21 -20 41 -50 35 -53 77 -89 77 -66 0 5 -4 10 -9 10 -5 0 -19 21
-31 48 -12 26 -32 61 -43 77 l-21 30 23 -20 c13 -11 46 -57 74 -103 27 -45 52
-81 54 -79 1 2 4 28 4 58 2 97 -46 167 -148 215 -54 26 -153 44 -153 28z"/>
<path d="M847 1902 c-87 -127 -107 -205 -79 -315 l15 -61 14 39 c7 22 16 63
19 92 2 29 11 67 20 85 l15 33 -6 -45 c-4 -25 -9 -53 -11 -62 -3 -10 -1 -18 5
-18 6 0 16 19 22 43 16 54 34 75 24 27 -5 -22 -4 -31 2 -25 6 6 29 31 52 56
l42 47 -18 43 c-9 24 -29 63 -44 86 l-26 42 -46 -67z m53 -122 c0 -11 -4 -20
-9 -20 -5 0 -7 9 -4 20 3 11 7 20 9 20 2 0 4 -9 4 -20z"/>
<path d="M1410 1947 c-19 -7 -38 -14 -42 -15 -5 -1 -9 -2 -10 -3 -2 0 -13 -2
-26 -5 -37 -7 -97 -41 -134 -76 -41 -39 -71 -82 -62 -91 10 -9 93 29 162 76
55 36 65 34 22 -4 l-35 -30 30 6 c17 3 36 14 44 23 13 16 13 16 8 0 -4 -11 -1
-18 7 -18 23 0 43 -34 40 -72 -1 -21 0 -38 3 -38 7 0 36 73 39 100 2 14 6 51
8 82 2 31 7 61 11 67 8 14 -21 13 -65 -2z"/>
<path d="M1275 1716 c-55 -18 -117 -50 -137 -73 -18 -20 -33 -113 -19 -113 5
0 17 12 27 27 24 38 53 68 59 62 3 -3 -4 -14 -14 -25 -24 -27 -44 -64 -37 -71
8 -8 35 16 68 61 37 52 36 37 -4 -33 -24 -42 -27 -52 -12 -41 10 8 25 23 32
33 7 9 18 17 24 17 7 0 7 -4 1 -12 -6 -7 -13 -21 -16 -31 -6 -16 -4 -16 30 -2
19 8 37 15 38 15 12 0 27 152 18 183 -5 20 -5 20 -58 3z"/>
<path d="M986 1687 c-86 -53 -137 -133 -142 -226 -5 -73 -6 -75 48 48 15 35
31 62 34 58 3 -3 1 -14 -5 -25 -6 -10 -13 -32 -15 -48 -3 -16 -10 -44 -15 -62
-7 -24 -7 -32 1 -30 6 2 12 12 14 21 3 22 77 167 82 162 3 -2 -8 -34 -22 -71
-15 -36 -25 -69 -22 -71 6 -6 46 58 46 74 0 6 5 15 11 19 8 4 9 -1 4 -17 -18
-63 -19 -59 14 -43 29 15 30 16 27 82 -4 88 -16 142 -30 141 -6 0 -20 -6 -30
-12z"/>
<path d="M1590 1677 c-51 -15 -112 -52 -152 -92 -36 -35 -35 -41 4 -49 17 -3
39 -13 48 -21 14 -13 25 -9 100 30 139 73 132 51 -7 -26 -56 -31 -73 -45 -73
-62 0 -18 2 -19 10 -7 5 8 10 11 10 5 0 -6 3 -6 8 1 9 13 112 76 112 68 0 -11
-65 -65 -102 -85 -21 -11 -38 -20 -38 -22 0 -6 180 2 192 9 7 5 29 38 47 74
36 70 77 120 97 120 33 0 20 22 -23 41 -59 26 -171 33 -233 16z"/>
<path d="M580 1615 c-8 -10 -14 -43 -14 -83 0 -83 29 -147 93 -203 48 -42 62
-45 37 -7 -17 26 -39 87 -49 133 -7 31 -8 32 58 -95 31 -57 27 -19 -4 58 -35
83 -29 85 24 7 21 -30 42 -55 46 -55 13 0 -40 123 -69 159 -15 18 -46 49 -68
68 -37 30 -43 32 -54 18z"/>
<path d="M178 1560 c-51 -16 -158 -84 -158 -100 0 -3 25 -14 56 -23 31 -10 70
-28 88 -42 36 -27 57 -31 88 -14 11 6 35 13 52 16 43 7 50 20 14 27 -70 14
-89 20 -94 27 -3 5 -10 6 -16 3 -7 -4 -8 -2 -4 5 5 7 12 9 19 3 7 -5 38 -14
70 -21 31 -7 57 -17 57 -23 0 -7 5 -6 14 1 9 8 16 8 20 2 8 -12 36 -3 36 10 0
5 -9 9 -21 9 -11 0 -28 4 -37 9 -9 5 -34 12 -56 15 -21 3 -46 11 -55 16 -16
11 -3 10 89 -5 19 -3 37 -5 40 -5 3 1 31 -8 63 -19 50 -18 58 -18 53 -5 -3 9
-6 20 -6 24 0 19 -49 61 -94 80 -64 29 -148 33 -218 10z"/>
<path d="M1316 1452 c-2 -2 -21 -5 -41 -8 -54 -7 -92 -29 -97 -58 -7 -35 -1
-37 38 -14 47 28 54 16 9 -15 -34 -23 -74 -67 -60 -67 5 0 64 39 75 50 3 3 16
14 30 25 20 17 19 14 -6 -15 -16 -20 -48 -52 -69 -73 -52 -48 -30 -48 32 1 26
21 55 42 63 46 29 16 -86 -91 -127 -119 -24 -15 -43 -29 -43 -31 0 -6 106 29
141 47 66 33 133 130 141 203 3 29 1 30 -40 31 -23 0 -44 -1 -46 -3z"/>
<path d="M1070 1424 c-60 -20 -109 -50 -126 -77 -19 -32 -36 -77 -28 -77 2 0
22 19 44 43 l41 42 -22 -42 c-11 -24 -25 -43 -29 -43 -4 0 -10 -7 -14 -15 -10
-26 28 0 69 47 21 24 34 34 30 23 -10 -33 -48 -83 -70 -94 -18 -8 -18 -10 -2
-10 10 -1 32 15 50 34 17 19 35 35 39 35 16 0 7 -22 -19 -46 -33 -30 -24 -42
15 -19 46 27 59 56 66 150 5 51 -4 61 -44 49z"/>
<path d="M470 1330 c0 -49 55 -114 125 -147 45 -21 145 -31 145 -14 0 6 -8 11
-17 11 -20 0 -103 39 -121 57 -19 18 -7 16 38 -7 22 -11 50 -19 62 -19 18 1
19 2 5 6 -11 3 -16 11 -13 19 3 9 -15 25 -52 47 -55 32 -90 49 -104 51 -3 1
-10 4 -14 9 -4 4 -18 7 -31 7 -17 0 -23 -6 -23 -20z m201 -88 c-7 -2 -18 1
-23 6 -8 8 -4 9 13 5 13 -4 18 -8 10 -11z"/>
<path d="M1488 1324 c-32 -10 -54 -24 -70 -46 -30 -43 -61 -74 -70 -71 -5 2
-8 -2 -8 -7 0 -15 18 -12 84 14 54 22 97 32 174 41 34 4 13 -13 -23 -19 -16
-2 -31 -5 -32 -6 -2 -2 -6 -3 -10 -4 -54 -13 -113 -38 -113 -48 0 -5 9 -4 20
2 11 6 20 9 20 6 0 -2 32 4 70 14 39 10 70 16 70 14 0 -10 -87 -44 -112 -44
-34 0 -35 -4 -4 -41 13 -15 26 -34 28 -40 7 -22 97 31 167 98 36 34 74 66 84
69 28 9 20 22 -25 43 -89 39 -172 48 -250 25z"/>
<path d="M287 1306 c-61 -23 -152 -84 -179 -121 l-18 -24 38 1 c25 0 56 -11
97 -35 33 -20 80 -41 105 -47 42 -12 127 -15 160 -7 45 11 100 31 100 37 0 7
-84 38 -125 46 -54 10 -147 33 -152 37 -5 5 63 1 132 -9 l40 -6 -24 18 c-13 9
-44 19 -69 20 -61 5 -67 14 -8 14 l47 0 -19 28 c-11 15 -21 36 -23 47 -6 27
-33 27 -102 1z"/>
<path d="M738 1110 c-25 -21 -32 -35 -36 -75 -5 -54 -46 -120 -68 -111 -8 3
-14 -5 -16 -22 -2 -20 -14 -32 -48 -50 -25 -13 -62 -40 -84 -60 -25 -24 -35
-30 -27 -16 13 27 67 73 97 85 13 4 31 23 40 41 16 32 16 33 -2 17 -11 -9 -37
-26 -59 -38 l-40 -23 45 41 c25 23 48 41 52 41 8 0 32 80 26 85 -9 9 -148 -68
-178 -97 -66 -67 -108 -215 -85 -305 6 -24 8 -26 18 -12 17 22 57 47 87 53 14
3 36 8 49 12 20 6 22 4 18 -12 -62 -211 -66 -443 -10 -616 l15 -48 99 0 c54 0
99 1 99 3 0 1 -15 34 -34 72 -99 205 -121 393 -71 605 2 8 4 20 4 27 1 6 20
29 42 50 23 21 55 58 71 83 l29 45 -25 5 -26 5 33 39 c17 22 47 55 66 75 35
37 56 79 45 90 -3 3 -15 -6 -26 -22 -27 -37 -42 -34 -22 5 l17 33 -37 -28
c-32 -25 -54 -23 -23 3 6 6 23 19 36 30 l25 21 -33 -3 c-17 -1 -46 -14 -63
-28z m-138 -274 c0 -2 -11 -11 -25 -20 -14 -9 -25 -13 -25 -8 0 5 10 14 23 20
27 13 27 13 27 8z"/>
<path d="M1175 1100 c-16 -6 -12 -9 20 -14 22 -4 56 -11 75 -16 30 -7 25 -8
-35 -9 -49 -1 -66 -4 -55 -11 8 -5 30 -10 48 -10 17 0 32 -4 32 -9 0 -11 -68
-6 -125 8 -61 16 -64 13 -17 -15 65 -39 130 -49 205 -33 46 11 107 50 107 70
0 28 -202 58 -255 39z"/>
<path d="M915 1040 c24 -69 41 -102 73 -136 49 -54 142 -90 142 -57 0 41 -120
217 -136 200 -3 -2 4 -20 15 -39 19 -32 19 -34 2 -35 -16 -1 -33 15 -91 87
l-20 25 15 -45z"/>
<path d="M977 1012 c10 -18 22 -32 26 -32 11 0 -8 34 -28 50 -13 11 -13 8 2
-18z"/>
<path d="M1445 959 c-16 -10 -38 -19 -47 -19 -34 0 -18 -18 22 -25 40 -7 165
-63 157 -71 -2 -2 -24 5 -49 16 -25 11 -63 22 -84 25 -21 4 -47 8 -56 11 -65
16 -65 16 -38 0 14 -9 43 -21 65 -28 22 -6 42 -12 45 -13 3 -1 26 -7 53 -15
55 -15 74 -33 25 -25 -119 20 -159 28 -208 42 -30 8 -59 19 -65 23 -5 4 -19
10 -30 14 -30 11 83 -102 132 -130 68 -40 133 -49 230 -31 60 12 77 12 104 0
18 -7 33 -12 35 -10 8 7 -20 83 -43 121 -46 74 -134 137 -190 135 -15 0 -41
-9 -58 -20z"/>
<path d="M866 920 c-2 -8 -13 -43 -25 -78 -14 -45 -19 -85 -18 -140 2 -68 7
-87 40 -152 21 -41 47 -86 58 -100 l19 -25 18 21 c70 87 91 137 91 222 1 69
-12 103 -54 142 l-28 25 7 -29 c13 -54 18 -146 9 -146 -6 0 -10 14 -11 30 0
17 -3 39 -7 49 -10 33 -17 65 -17 82 0 8 -8 21 -19 27 -10 7 -19 8 -19 3 0 -5
4 -11 10 -13 5 -1 12 -23 14 -48 10 -92 16 -210 12 -210 -2 0 -10 33 -16 73
-6 39 -19 96 -27 126 -8 30 -15 70 -15 91 1 41 -14 75 -22 50z m121 -292 c-3
-8 -6 -5 -6 6 -1 11 2 17 5 13 3 -3 4 -12 1 -19z"/>
<path d="M1247 710 c19 -39 41 -103 49 -143 8 -40 17 -80 20 -91 4 -11 2 -16
-4 -13 -7 5 -31 72 -37 107 -9 46 -73 191 -75 167 0 -5 4 -16 10 -26 5 -10 11
-29 14 -42 13 -69 39 -167 52 -197 8 -19 14 -40 14 -46 -1 -23 -40 62 -71 154
-35 106 -67 175 -76 166 -4 -3 -8 -39 -9 -79 -1 -41 -9 -90 -17 -110 -15 -34
-14 -37 12 -79 16 -24 50 -61 76 -83 68 -57 86 -76 97 -108 8 -23 13 -26 25
-15 19 15 63 103 70 137 13 73 3 155 -27 211 -15 28 -139 160 -151 160 -4 0 8
-32 28 -70z"/>
</g>
</svg>
